<?xml version="1.0" standalone="no"?>
<!DOCTYPE svg PUBLIC "-//W3C//DTD SVG 20010904//EN"
 "http://www.w3.org/TR/2001/REC-SVG-20010904/DTD/svg10.dtd">
<svg version="1.0" xmlns="http://www.w3.org/2000/svg"
 width="65.000000pt" height="65.000000pt" viewBox="0 0 65.000000 65.000000"
 preserveAspectRatio="xMidYMid meet">

<g transform="translate(0.000000,65.000000) scale(0.100000,-0.100000)"
fill="#000000" stroke="none">
<path d="M0 325 l0 -325 149 0 c127 0 150 2 155 16 3 9 6 59 6 113 0 95 -1 98
-30 126 -17 16 -30 24 -30 18 0 -5 9 -18 20 -28 18 -16 20 -31 20 -122 0 -100
-1 -103 -22 -103 -36 0 -131 48 -122 61 4 8 3 9 -5 5 -17 -11 -70 50 -99 114
-51 109 -28 247 56 333 132 137 322 137 454 0 106 -110 111 -283 11 -412 -1
-2 -13 4 -25 15 l-23 19 19 -23 c11 -12 16 -25 13 -29 -4 -4 -14 2 -22 13 -8
10 -15 14 -15 7 0 -6 5 -15 10 -18 6 -3 10 -10 10 -15 0 -14 -121 -70 -152
-70 l-28 0 0 99 c0 84 3 102 20 122 17 21 21 22 30 9 14 -22 12 -34 -4 -21 -8
7 -17 8 -20 3 -8 -13 20 -35 34 -27 15 9 12 41 -5 55 -13 11 -20 9 -40 -10
-24 -22 -25 -29 -25 -137 l0 -113 155 0 155 0 0 325 0 325 -325 0 -325 0 0
-325z"/>
<path d="M281 598 c-13 -20 -12 -22 1 -11 8 7 18 10 22 6 4 -4 4 0 0 10 -8 21
-6 21 -23 -5z"/>
<path d="M320 603 c0 -10 4 -14 8 -8 4 6 11 13 16 18 5 4 2 7 -7 7 -10 0 -17
-8 -17 -17z"/>
<path d="M245 599 c-11 -16 -1 -19 13 -3 7 8 8 14 3 14 -5 0 -13 -5 -16 -11z"/>
<path d="M361 594 c0 -11 3 -14 6 -6 3 7 2 16 -1 19 -3 4 -6 -2 -5 -13z"/>
<path d="M206 578 c3 -5 10 -6 15 -3 13 9 11 12 -6 12 -8 0 -12 -4 -9 -9z"/>
<path d="M436 573 c-4 -9 -4 -14 0 -10 4 4 14 1 23 -6 14 -11 15 -10 1 8 -8
11 -15 21 -16 23 -1 2 -5 -5 -8 -15z"/>
<path d="M185 568 c8 -20 -10 -25 -18 -5 -4 9 -6 9 -6 0 -1 -18 19 -27 32 -14
8 8 8 14 -2 24 -10 10 -11 9 -6 -5z"/>
<path d="M130 551 c0 -5 7 -11 14 -14 10 -4 13 -1 9 9 -6 15 -23 19 -23 5z"/>
<path d="M487 554 c-10 -11 -9 -26 2 -20 5 4 11 1 13 -6 3 -7 7 -5 11 6 4 9 3
15 -2 11 -5 -3 -11 0 -13 6 -2 5 -7 7 -11 3z"/>
<path d="M106 521 c-3 -5 0 -14 8 -20 10 -9 15 -8 19 3 9 22 -15 37 -27 17z"/>
<path d="M527 513 c-8 -7 3 -33 15 -33 5 0 7 4 4 9 -4 5 -1 11 6 13 8 3 6 6
-4 10 -9 4 -18 4 -21 1z"/>
<path d="M77 479 c7 -7 15 -10 18 -7 3 3 -2 9 -12 12 -14 6 -15 5 -6 -5z"/>
<path d="M555 470 c-4 -7 -2 -17 4 -23 9 -9 11 -8 6 6 -7 18 10 24 18 7 3 -6
4 -5 3 2 -3 16 -23 21 -31 8z"/>
<path d="M304 438 c2 -14 10 -23 21 -23 11 0 19 9 21 23 3 18 -1 22 -21 22
-20 0 -24 -4 -21 -22z"/>
<path d="M580 420 c0 -5 5 -10 11 -10 5 0 7 5 4 10 -3 6 -8 10 -11 10 -2 0 -4
-4 -4 -10z"/>
<path d="M45 410 c3 -5 14 -10 23 -10 15 0 15 2 2 10 -20 13 -33 13 -25 0z"/>
<path d="M176 400 c-8 -17 2 -33 20 -36 17 -3 22 2 22 21 0 17 -6 23 -20 22
-11 -1 -21 -4 -22 -7z"/>
<path d="M257 392 c-10 -10 -17 -26 -17 -35 0 -9 -6 -17 -14 -17 -8 0 -24 -9
-37 -19 -23 -19 -24 -19 -5 -40 22 -24 39 -27 55 -7 8 10 8 16 -3 25 -9 7 -17
8 -20 2 -3 -5 0 -12 6 -14 9 -4 10 -6 1 -6 -19 -1 -26 18 -12 35 11 13 18 9
56 -28 53 -52 56 -43 6 14 l-37 43 42 -40 42 -39 2 -131 2 -130 5 136 c5 116
9 140 25 158 11 12 24 21 29 21 6 0 -1 -13 -16 -28 -45 -46 -30 -49 16 -4 38
37 45 41 56 28 13 -15 7 -36 -9 -36 -5 0 -7 7 -4 15 4 8 2 15 -4 15 -15 0 -22
-26 -9 -39 16 -16 31 -14 50 7 16 17 15 20 -8 42 -22 21 -29 22 -45 12 -22
-13 -27 -3 -8 16 9 9 6 17 -12 37 -22 23 -25 24 -42 8 -21 -19 -23 -36 -4 -52
10 -8 16 -8 25 3 7 9 8 17 2 20 -5 3 -12 0 -14 -6 -3 -8 -6 -6 -6 5 -1 21 27
23 36 1 6 -16 -42 -74 -62 -74 -6 0 -26 15 -43 33 -29 29 -31 35 -18 46 16 14
36 7 36 -12 0 -7 -4 -6 -10 3 -5 8 -12 11 -16 7 -4 -4 -1 -14 7 -23 14 -13 17
-13 29 0 10 13 9 20 -4 41 -20 30 -28 31 -49 7z"/>
<path d="M430 384 c0 -21 4 -25 23 -22 30 4 30 40 0 44 -19 3 -23 -1 -23 -22z"/>
<path d="M577 379 c4 -13 8 -18 11 -10 2 7 -1 18 -6 23 -8 8 -9 4 -5 -13z"/>
<path d="M30 382 c0 -5 7 -9 15 -9 8 0 12 4 9 9 -3 4 -9 8 -15 8 -5 0 -9 -4
-9 -8z"/>
<path d="M596 265 c4 -8 10 -15 15 -15 4 0 6 7 3 15 -4 8 -10 15 -15 15 -4 0
-6 -7 -3 -15z"/>
<path d="M223 244 c-7 -19 20 -49 36 -40 18 11 13 39 -5 32 -12 -4 -15 -2 -10
9 3 8 1 15 -5 15 -5 0 -12 -7 -16 -16z"/>
<path d="M48 243 c7 -3 16 -2 19 1 4 3 -2 6 -13 5 -11 0 -14 -3 -6 -6z"/>
<path d="M59 221 c7 -5 11 -13 8 -18 -3 -5 0 -10 8 -10 8 0 15 3 15 7 0 10
-23 30 -34 30 -6 0 -5 -4 3 -9z"/>
<path d="M573 206 c4 -9 3 -15 -2 -12 -5 3 -14 0 -20 -7 -8 -11 -6 -13 12 -12
24 2 35 29 16 41 -9 5 -10 2 -6 -10z"/>
<path d="M85 160 c10 -11 14 -20 10 -20 -5 0 -4 -5 3 -12 9 -9 15 -9 25 1 10
10 8 11 -8 5 -18 -7 -19 -6 -5 11 9 11 10 16 3 11 -7 -4 -13 -3 -13 2 0 6 -8
13 -17 16 -15 6 -15 4 2 -14z"/>
<path d="M137 123 c-12 -12 -7 -21 11 -19 9 0 16 -5 15 -11 -2 -7 2 -13 7 -13
6 0 10 4 10 8 0 14 -36 43 -43 35z"/>
<path d="M490 111 c0 -6 4 -13 10 -16 6 -3 7 1 4 9 -7 18 -14 21 -14 7z"/>
<path d="M445 81 c-6 -11 13 -26 22 -17 4 3 1 6 -6 6 -7 0 -9 5 -6 10 3 6 4
10 1 10 -3 0 -7 -4 -11 -9z"/>
<path d="M220 60 c0 -13 12 -19 26 -13 21 8 17 19 -6 19 -11 0 -20 -3 -20 -6z"/>
<path d="M405 60 c3 -5 11 -10 16 -10 6 0 7 5 4 10 -3 6 -11 10 -16 10 -6 0
-7 -4 -4 -10z"/>
</g>
</svg>
